<?xml version="1.0" encoding="utf-8"?>
<!-- Generator: Adobe Illustrator 23.0.6, SVG Export Plug-In . SVG Version: 6.00 Build 0)  -->
<svg version="1.1" id="Layer_1" xmlns="http://www.w3.org/2000/svg" xmlns:xlink="http://www.w3.org/1999/xlink" x="0px" y="0px"
	 viewBox="0 0 64 64" style="enable-background:new 0 0 64 64;" xml:space="preserve">
<style type="text/css">
	.st0{fill:#EF4036;}
	.st1{fill:none;}
	.st2{fill:#282560;}
</style>
<g>
	<path class="st0" d="M26,34.9l-0.3,0.6h0.9l-0.9,2.1h0.8l0.9-2.1h0.8l0.3-0.6L26,34.9z"/>
	<path class="st0" d="M30.2,34.9c-0.7,0-0.9,0.1-1.5,0.8l-1.8,2h0.9l0.4-0.5l0.9,0L29,37.6l0.8,0l1.2-2.8L30.2,34.9z M29.5,36.5
		l-0.7,0l0.4-0.5c0.3-0.3,0.5-0.5,0.7-0.5L29.5,36.5z"/>
	<path class="st0" d="M33.5,34.9l-0.7,1.6l-0.1-1.2c0-0.3-0.1-0.4-0.5-0.4l-0.6,0l-1.2,2.8h0.8l0.7-1.6l0.1,1.2
		c0,0.3,0.2,0.4,0.5,0.4l0.6,0l1.2-2.8L33.5,34.9z"/>
	<path class="st0" d="M37.1,34.8l-2.4,0l-0.3,0.7h1.4l-2.1,1.6l-0.2,0.5H36l0.3-0.7l-1.5,0l2.1-1.6L37.1,34.8z"/>
	<path class="st0" d="M39.4,34.8c-0.7,0-0.9,0.1-1.5,0.8l-1.8,2H37l0.4-0.5l0.9,0l-0.2,0.5H39l1.2-2.8L39.4,34.8z M38.6,36.5l-0.7,0
		l0.4-0.5c0.3-0.3,0.5-0.5,0.7-0.5L38.6,36.5z"/>
	<path class="st0" d="M42.6,34.8l-0.7,1.6l-0.1-1.2c0-0.3-0.1-0.4-0.5-0.4l-0.6,0l-1.2,2.8h0.8L41,36l0.1,1.2c0,0.3,0.1,0.5,0.5,0.5
		l0.6,0l1.2-2.8L42.6,34.8z"/>
	<path class="st0" d="M43.9,34.8l-1.2,2.8h0.8l1.2-2.8L43.9,34.8z"/>
	<path class="st0" d="M47,34.8c-0.7,0-0.9,0.1-1.5,0.8l-1.8,2.1l0.9,0l0.5-0.5l0.9,0l-0.2,0.5l0.8,0l1.2-2.8L47,34.8z M46.3,36.5
		l-0.7,0l0.4-0.5c0.3-0.3,0.5-0.5,0.7-0.5L46.3,36.5z"/>
	<path class="st1" d="M52.4,37.7"/>
	<path class="st2" d="M29.2,30.6c-0.6,0-0.8,0.1-1.2,0.7l-0.6,0.9l-0.6,1h0.8l0.3-0.4l0.9,0l-0.1,0.4h0.7l0.6-2.6L29.2,30.6z
		 M28.9,32.2l-0.7,0l0.3-0.5c0.2-0.3,0.4-0.5,0.6-0.5L28.9,32.2z"/>
	<polygon class="st2" points="29.9,33.2 30.6,33.2 31.2,30.6 30.5,30.6 	"/>
	<path class="st2" d="M32.8,30.6l-1.1,0l-0.6,2.6l1.1,0c1.1,0,1.4-0.5,1.6-1.3C34,31.1,33.9,30.6,32.8,30.6z M33.1,31.9
		c-0.1,0.6-0.4,0.7-0.7,0.7l-0.4,0l0.3-1.4l0.4,0C33,31.2,33.2,31.3,33.1,31.9z"/>
	<path class="st2" d="M37.7,30.6l-0.7,0l-0.3,1.3l-0.9,0l1-1.3l-0.8,0l-0.9,1.2c-0.3,0.4-0.2,0.7,0.3,0.7l1.1,0l-0.1,0.6l0.7,0
		l0.1-0.6l0.6,0l0.1-0.6l-0.6,0L37.7,30.6z"/>
	<path class="st2" d="M40.2,31.2l0.1,0c0.2,0,0.4,0.1,0.4,0.4l0.7,0c0.1-0.6,0-1-1-1l-0.1,0c-1.1,0-1.4,0.6-1.6,1.3
		c-0.2,0.7-0.1,1.3,1,1.3l0.1,0c1,0,1.3-0.4,1.5-1l-0.7,0c-0.2,0.4-0.4,0.3-0.6,0.3l-0.1,0c-0.2,0-0.4-0.1-0.3-0.6
		C39.6,31.3,39.9,31.2,40.2,31.2z"/>
	<polygon class="st2" points="43.4,31.7 42.5,31.7 42.7,30.6 42,30.6 41.4,33.2 42.2,33.2 42.3,32.3 43.3,32.3 43.1,33.2 43.8,33.2 
		44.4,30.6 43.6,30.6 	"/>
	<polygon class="st2" points="44.3,33.2 45,33.2 45.6,30.6 44.9,30.6 	"/>
	<path class="st2" d="M46.4,32.5l0.4-1.9l-0.8,0l-0.5,2.2c0,0.2,0,0.4,0.4,0.4h1.4l0.1-0.5l-1,0C46.4,32.7,46.4,32.6,46.4,32.5z"/>
	<path class="st2" d="M49.4,30.6l-1.1,0l-0.6,2.5l1.1,0c1.1,0,1.4-0.4,1.6-1.2C50.6,31.1,50.5,30.6,49.4,30.6z M49.6,31.9
		c-0.1,0.6-0.4,0.7-0.7,0.7l-0.4,0l0.3-1.4l0.4,0C49.5,31.2,49.8,31.3,49.6,31.9z"/>
	<path class="st2" d="M53.2,31.6c0.1-0.4,0-1-0.6-1l-1.5,0l-0.6,2.5l0.8,0l0.1-0.6l0.3,0l0.1,0.2c0.2,0.4,0.2,0.4,0.7,0.4
		c0.1,0,0.3,0,0.4,0l-0.4-0.7C52.9,32.4,53.1,31.9,53.2,31.6z M52.4,31.6C52.4,31.9,52.2,32,52,32l-0.5,0l0.2-0.7l0.5,0
		C52.4,31.2,52.5,31.4,52.4,31.6z"/>
	<path class="st2" d="M53.7,31.1l-0.4,1.7c0,0.2,0,0.4,0.4,0.4l1.6,0l0.1-0.5l-1.2,0c-0.1,0-0.1,0-0.1-0.1l0.1-0.3l1.1,0l0.1-0.6
		l-1.1,0l0.1-0.3c0-0.1,0-0.1,0.1-0.1l1.2,0l0.1-0.6l-1.6,0C53.9,30.7,53.8,30.8,53.7,31.1z"/>
	<path class="st2" d="M58.1,30.7l-0.3,1.5l-0.3-1.1c-0.1-0.3-0.2-0.4-0.6-0.4l-0.5,0l-0.6,2.5h0.8l0.3-1.4l0.3,1
		c0.1,0.3,0.2,0.4,0.6,0.4l0.5,0l0.6-2.5L58.1,30.7z"/>
	<path class="st2" d="M39.2,25.2H42L42,25.3l-1.1,2.3l0,0h-2.8c-0.1,0-0.3,0-0.4,0c-0.2,0-0.4-0.1-0.5-0.1c-0.7-0.3-1.1-0.9-1.1-1.6
		c0-0.2,0-0.4,0.1-0.6c0-0.2,0.1-0.3,0.2-0.5l0.8-1.7l0,0l0,0l1-1.9c-0.4,0-0.7,0-1,0c-1.6,0.2-2.2,1.1-2.2,1.1l0,0
		c-0.2,0.3-0.3,0.6-0.5,1.1l-0.9,1.9h1.9c-0.2,0.6-0.4,1.7,0.2,2.3l-3.1,0l-0.8,1.7h-3.1l3.8-7.7v0l0.4-0.8c0.7-1.3,1.5-1.6,3.4-1.6
		H42l-0.4,0.9l-0.4,0.8l-0.1,0.3l-0.4,0.7v0L39.2,25.2z"/>
	<polygon class="st2" points="41.6,20.1 41.2,20.9 41.6,20.1 	"/>
	<path class="st2" d="M48,25.2c-0.3,0.8-0.4,1.7-0.3,2.5h-3.5l-0.8,1.6h0l1.9-4.1H48z"/>
	<path class="st2" d="M49.1,25.2L48.3,27c0-0.5,0.2-1.1,0.4-1.8H49.1z"/>
	<path class="st2" d="M56,23.1c0.4-1.4-0.2-1.7-0.9-1.7l-0.4,0c-0.9,0-1.9,0.5-2.9,2.8c-1,2.3-0.3,2.8,0.5,2.8l0.4,0
		c0.7,0,1.5-0.2,2.4-1.6l2.5,0c-1.1,2.2-2.6,3.9-5.9,3.9l-0.2,0c-2.4,0-3.1-1-3-2.3c0-0.5,0.2-1.1,0.4-1.8c0.1-0.3,0.2-0.7,0.4-1
		c1.2-2.8,2.9-5.1,6.6-5l0.2,0c3.3,0,3.3,1.8,2.5,4L56,23.1z"/>
	<path class="st2" d="M56,23.1c0.4-1.4-0.2-1.7-0.9-1.7l-0.4,0c-0.9,0-1.9,0.5-2.9,2.8c-1,2.3-0.3,2.8,0.5,2.8l0.4,0
		c0.7,0,1.5-0.2,2.4-1.6l2.5,0c-1.1,2.2-2.6,3.9-5.9,3.9l-0.2,0c-2.4,0-3.1-1-3-2.3c0-0.5,0.2-1.1,0.4-1.8c0.1-0.3,0.2-0.7,0.4-1
		c1.2-2.8,2.9-5.1,6.6-5l0.2,0c3.3,0,3.3,1.8,2.5,4L56,23.1z"/>
	<path class="st2" d="M42,25.3l-1.1,2.3h-3.2c-0.2,0-0.4-0.1-0.5-0.1c-0.7-0.3-1.1-0.9-1.1-1.6c0-0.2,0-0.4,0.1-0.6H42z"/>
	<polygon class="st2" points="41.1,21.2 40.7,21.9 40.7,21.9 40.7,21.9 	"/>
	<polygon class="st2" points="47.9,19.2 45.2,25.2 43.3,29.3 40.2,29.3 40.9,27.7 40.9,27.7 42,25.3 42,25.2 44.8,19.2 	"/>
	<g>
		<polygon class="st2" points="19.2,32.6 19.2,32.6 19.2,32.6 		"/>
		<polygon class="st2" points="23.2,32.3 23.2,32.3 23.2,32.3 		"/>
		<polygon class="st2" points="23.7,31.9 23.7,31.9 23.7,31.9 		"/>
		<polygon class="st2" points="23.8,31.9 23.8,31.9 23.8,31.9 		"/>
		<polygon class="st2" points="23.8,31.9 23.8,31.9 23.8,31.9 		"/>
		<polygon class="st2" points="24.2,31.4 24.2,31.4 24.2,31.4 		"/>
		<polygon class="st2" points="22.2,32.5 22.2,32.5 22.2,32.5 22.2,32.5 		"/>
		<polygon class="st2" points="18.9,31.3 18.9,31.3 18.9,31.3 18.9,31.3 		"/>
		<polygon class="st2" points="19,32.2 19,32.2 19,32.2 		"/>
		<polygon class="st2" points="21.8,28.6 21.8,28.6 21.8,28.6 21.8,28.6 21.8,28.6 21.8,28.6 21.8,28.6 		"/>
		<path class="st2" d="M18.1,31.4C18.1,31.4,18.1,31.5,18.1,31.4C18.1,31.5,18.1,31.4,18.1,31.4L18.1,31.4z"/>
		<polygon class="st2" points="8.7,30.1 8.7,30.1 8.7,30.1 8.7,30.1 8.7,30.1 8.7,30.1 8.7,30.1 		"/>
		<polygon class="st2" points="10.3,30.7 10.3,30.7 10.3,30.7 10.3,30.7 10.3,30.7 10.3,30.7 10.3,30.7 10.3,30.7 10.3,30.7 
			10.3,30.7 		"/>
		<polygon class="st2" points="15.6,30.2 15.6,30.2 15.6,30.2 15.6,30.2 15.6,30.2 15.6,30.2 15.6,30.2 15.6,30.2 15.6,30.2 		"/>
		<polygon class="st2" points="15.6,30.2 15.6,30.2 15.6,30.2 		"/>
		<polygon class="st2" points="10.4,29.9 10.4,29.9 10.4,29.9 10.4,29.9 10.4,29.9 10.4,29.9 10.4,29.9 10.4,29.9 10.4,29.9 
			10.4,29.9 		"/>
		<polygon class="st2" points="10.7,27.7 10.7,27.7 10.7,27.7 		"/>
		<polygon class="st2" points="9.4,30.5 9.4,30.5 9.4,30.5 9.4,30.5 9.4,30.5 9.4,30.5 9.4,30.5 9.4,30.5 9.4,30.5 9.4,30.5 		"/>
		<polygon class="st2" points="10.4,31 10.4,31 10.4,31 		"/>
		<polygon class="st2" points="10.4,31 10.4,31 10.4,31 10.4,31 		"/>
		<polygon class="st2" points="13.9,32.6 13.9,32.6 13.9,32.6 13.9,32.6 13.9,32.6 13.9,32.6 		"/>
		<polygon class="st2" points="10,30.5 10,30.5 10,30.5 		"/>
		<polygon class="st2" points="10,30.5 10,30.5 10,30.5 		"/>
		<polygon class="st2" points="10.5,29.2 10.5,29.2 10.5,29.2 		"/>
		<polygon class="st2" points="17,32.7 17,32.6 17,32.6 17,32.6 17,32.6 17,32.6 17,32.6 17,32.6 17,32.7 17,32.7 		"/>
		<path class="st2" d="M23.2,32.9C23.2,32.9,23.2,32.9,23.2,32.9L23.2,32.9C23.2,32.9,23.2,32.9,23.2,32.9
			C23.2,32.9,23.2,32.9,23.2,32.9z"/>
		<path class="st2" d="M21.4,27.9C21.4,27.9,21.4,27.9,21.4,27.9C21.4,27.9,21.4,27.9,21.4,27.9C21.4,27.9,21.4,27.9,21.4,27.9
			C21.4,27.9,21.5,27.9,21.4,27.9L21.4,27.9C21.5,27.9,21.5,27.9,21.4,27.9C21.5,27.9,21.5,27.9,21.4,27.9L21.4,27.9
			C21.5,27.9,21.5,27.9,21.4,27.9c0.1,0,0.1,0,0.1,0h0c0,0,0,0,0,0c0,0,0,0,0,0c0,0,0,0,0,0c0,0,0,0,0,0c0,0,0,0,0,0h0c0,0,0,0,0,0
			c0,0,0,0,0.1,0c0,0,0,0,0,0c0,0,0,0,0,0c0,0,0,0,0,0c0,0,0,0,0,0c0,0,0,0,0,0c0.1,0,0.1,0,0.2,0c0,0,0,0,0,0h0c0,0,0,0,0.1,0
			c0,0,0,0,0,0c0,0,0,0,0,0c0,0,0,0,0,0c0,0,0,0,0,0c0,0,0,0,0,0c0,0,0.1,0,0.1,0c0.1-0.1,0.3-0.1,0.3-0.1c-0.2-0.1-0.1-0.2-0.1-0.2
			c-0.1,0-0.5,0.2-0.4,0.1c0.1-0.1,0.2-0.4,0.2-0.4c0,0,0,0,0,0.1c-0.1,0.3-0.8,0.3-0.8,0.3c0.1,0.1,0.4,0,0.5,0
			c-0.2,0.1-0.5,0.2-0.7,0.3C21.2,27.9,21.3,27.9,21.4,27.9z"/>
		<path class="st2" d="M23.3,27.5C23.3,27.5,23.3,27.5,23.3,27.5C23.3,27.5,23.4,27.5,23.3,27.5c0,0-0.1,0-0.1,0
			c-0.1,0-0.1,0-0.2,0.1c0,0,0,0,0,0c0,0,0,0-0.1,0c0,0-0.1,0-0.1,0c0,0-0.1,0-0.1,0c-0.1,0-0.1,0.1-0.2,0.1c0,0-0.1,0-0.1,0
			c0,0,0,0,0,0c0,0,0,0,0,0c0,0,0,0,0,0c0,0,0,0,0,0c0,0,0,0,0,0c0,0,0,0,0,0c-0.1,0-0.1,0-0.2,0.1c0,0,0,0-0.1,0c0,0,0,0,0,0
			c-0.1,0-0.1,0.1-0.2,0.1c0,0,0,0,0,0c0,0,0,0,0,0c0,0,0,0,0,0c0,0,0,0,0,0c0,0,0,0,0,0c0,0,0,0,0,0c0,0,0,0,0,0c0,0,0,0,0,0
			c0,0,0,0,0,0c0,0,0,0,0,0c0,0,0,0,0,0c0,0,0,0,0,0c0,0,0,0,0,0c0,0,0,0,0,0c0,0,0,0,0,0c0,0,0,0,0,0c0,0,0,0,0,0.1c0,0,0,0,0,0
			c0,0,0,0,0,0c0,0,0,0,0,0c0,0,0,0,0,0c0,0,0.1,0.1,0.1,0.1c0,0,0,0,0,0.1v0c0,0,0-0.1,0-0.1c0,0,0,0,0,0c0-0.1,0.1-0.1,0.1-0.2
			c0,0,0,0,0,0c0,0,0,0,0,0c0,0,0,0,0,0c0,0,0,0,0,0c0,0,0,0,0,0c0,0,0,0,0,0c0,0,0,0,0,0c0,0,0,0,0,0c0,0,0,0,0-0.1
			c0,0,0-0.1,0-0.1v0c0,0,0-0.1,0.1-0.1c0,0,0,0,0,0c0.1-0.1,0.1-0.1,0.2-0.2c0.2-0.1,0.3-0.2,0.5-0.3c0,0-0.1,0-0.1,0l0.2-0.1
			C23.2,27.6,23.3,27.5,23.3,27.5z"/>
		<path class="st2" d="M8.5,32.2c1.3,1.2,5.3,0.5,6,0.3c-3.1,0.6-5.2-0.2-5.7-0.4c0.3,0.1,0.5,0,0.5,0c-0.8-0.2-1.5-1.5-1.9-2.8
			l-0.2,0.3C7.5,30.7,7.9,31.7,8.5,32.2z"/>
		<path class="st2" d="M22.4,32.1C22.4,32.1,22.4,32.1,22.4,32.1c0,0.1-0.1,0.3,0,0.5c0,0,0,0,0,0c0,0,0,0,0,0c0,0,0,0,0,0l0,0
			c0,0,0,0,0,0c0,0,0,0,0,0c0,0,0,0,0,0c0,0,0,0,0,0c0,0,0,0,0,0c0,0,0,0,0,0c0,0,0,0,0,0c0,0,0,0,0,0c0,0,0,0,0,0c0,0,0,0,0,0
			c0,0,0,0,0,0c0,0,0,0,0,0c0,0,0,0,0,0c0,0,0,0,0,0c0,0,0,0,0,0c0,0,0,0,0,0c0,0,0,0,0,0c0,0,0,0,0,0c0,0,0,0,0,0c0,0,0,0,0,0
			c0,0,0,0,0,0c0,0,0,0,0,0c0,0,0,0,0,0c0,0,0,0,0,0h0c0,0,0,0,0,0c0,0,0,0,0,0c0,0,0,0,0,0c0,0,0,0,0,0c0,0,0,0,0.1,0
			c0,0,0,0,0.1,0c0,0,0,0,0,0c0,0,0.1,0,0.2,0c0,0,0.1,0,0.1,0c0,0,0,0,0,0c0,0,0,0,0,0c0,0,0,0,0.1,0h0c0,0,0,0,0,0
			c0,0,0.1,0,0.1,0c0,0,0,0,0,0c0,0,0,0,0,0c0,0,0,0,0,0c0,0,0,0,0,0c0,0,0,0,0,0c0,0,0,0,0,0c0,0,0,0,0,0c0,0,0,0,0,0c0,0,0,0,0,0
			c0,0,0,0,0,0c0,0,0,0,0,0c0,0,0,0,0-0.1c0,0,0,0,0,0c0,0,0,0,0,0c-0.1-0.2-0.5-0.3-0.6-0.4c0,0,0,0,0,0c0,0,0,0,0,0l0,0
			c0,0,0,0,0,0h0v0h0l-0.2-0.1v0L22.4,32.1z"/>
		<path class="st2" d="M19,29.1l0.3-0.4c-0.2-0.1-0.3-0.2-0.4-0.1C18.6,28.8,19,29.1,19,29.1z"/>
		<path class="st2" d="M19.7,28.4l0.2-0.5c-0.2-0.1-0.3-0.1-0.4,0.1C19.2,28.3,19.7,28.4,19.7,28.4z"/>
		<path class="st2" d="M18.1,29.4c-0.3,0.2,0.2,0.6,0.2,0.6l0.4-0.5C18.4,29.3,18.3,29.3,18.1,29.4z"/>
		<path class="st2" d="M19.3,31.8c-0.2,0.4,0.1,0.6,0.1,0.6l0,0l0.4-0.6C19.5,31.5,19.3,31.8,19.3,31.8z"/>
		<path class="st2" d="M21.9,19.2c0.8,0.4,1.6,0.9,1.8,1.8c0,0-0.6,1.7-0.6,1.7c0,0,0,0,0,0l0,0c0,0.1-0.1,0.1-0.1,0.2
			c-0.1,0.2-0.1,0.3-0.1,0.4c0,0.1-0.1,0.2-0.1,0.2c-0.1-0.2-0.4-0.4-0.4-0.4c0.2,0.2,0.3,0.4,0.4,0.6c0.1,0.2,0.1,0.4,0.1,0.4
			C22.3,23.8,22,24,22,24c0.5-0.1,0.9,0.2,1.2,0.5c0,0,0,0,0,0c0,0,0,0,0,0c0.1,0.1,0.2,0.2,0.3,0.4c0,0,0,0,0,0s0.1,0.1,0.1,0.1
			c0.3,0.5,0.6,1,0.7,1.6c0.2,0.5,0.3,1,0.3,1.5c0,0.3,0,0.6,0,0.9c0,0.5-0.1,1.1-0.1,1.6c0,0,0,0.1,0,0.1c0,0,0,0,0,0
			c0,0.2,0,0.3-0.1,0.4c0,0,0,0.1,0,0.1c0,0,0,0.1-0.1,0.1c0,0,0,0,0,0c0,0,0,0,0,0c0,0,0,0,0,0c0,0,0,0,0,0c0,0,0,0,0,0
			c0,0,0,0,0,0c0,0,0,0,0,0c0,0,0,0,0,0c0,0,0,0,0,0c0,0,0,0,0,0c0,0,0,0,0,0c0,0,0,0,0,0c0,0,0-0.1-0.1,0c-0.1,0.1-0.2,0-0.3-0.1
			c-0.1,0,0.1-0.1-0.1-0.2c-0.1-0.1-0.3,0.2-0.5,0.1s-0.3-0.7-0.5-0.8c-0.1,0-0.1-0.1-0.1-0.2c0-0.1-0.1-0.3-0.1-0.4
			c0-0.1-0.1-0.3-0.1-0.4c0,0,0,0.1,0,0.1c0,0,0,0.1,0,0.1c0,0.1,0,0.1,0,0.2c0,0.1,0,0.3,0,0.4c0,0.1,0,0.3,0,0.4
			c0,0.2,0.1,0.4,0.2,0.6c0,0,0,0,0,0.1c0,0,0,0,0,0.1c0,0,0,0,0,0.1c0,0,0,0,0,0.1c0,0,0,0,0,0.1c0,0,0,0,0,0.1c0,0,0,0,0,0.1
			c0,0,0,0,0,0.1c0,0,0,0,0.1,0.1c0,0,0,0,0.1,0.1c0,0,0,0,0.1,0c0,0,0,0,0.1,0c0,0,0,0,0.1,0c0,0,0,0,0,0c0.1,0,0.1,0.1,0.2,0.1
			c0.1,0,0.3,0,0.4,0l0,0c0,0,0,0,0.1,0c0,0,0.1,0,0.1,0c0,0,0,0,0,0c0,0,0,0,0,0c0,0,0,0,0,0l0,0c0,0,0,0,0,0c0,0,0,0,0,0
			c0,0,0,0,0,0c0,0,0,0,0,0c0,0,0,0,0,0l0,0c0,0,0,0,0,0c0,0,0,0,0,0l0,0l0,0v0c0,0,0,0,0,0l0,0.1c0,0,0,0,0,0c0,0,0,0,0,0s0,0,0,0
			c0,0,0,0,0,0c0,0,0,0,0,0c0,0,0,0,0,0c0,0,0,0,0,0.1c0,0,0,0,0,0c0,0,0,0,0.1,0.1c0,0,0,0,0,0c0,0,0,0,0,0c0,0,0,0,0,0.1
			c0,0,0,0,0,0c0,0,0,0,0,0c0,0,0,0,0,0c0,0,0,0,0,0h0c0,0,0,0,0,0c0,0,0,0,0,0c0,0,0,0,0,0c0,0,0,0,0,0c0,0,0,0,0,0c0,0,0,0,0,0
			c0,0,0,0,0,0c0.1-0.2,0.2-0.4,0.2-0.6c0,0,0,0,0,0c0,0,0,0,0,0c0,0,0,0,0,0c0,0,0-0.1,0-0.1c0,0,0,0,0,0c0,0,0-0.1,0-0.1
			c0,0,0,0,0-0.1c0-0.1,0-0.1,0-0.2c0,0,0,0,0,0c0,0,0,0,0,0c0,0,0,0,0,0c0,0,0,0,0,0c0,0,0,0,0,0c0,0,0,0,0,0h0l0,0
			c0,0,0-0.1,0-0.2c0-0.1,0-0.3,0.1-0.4c0.1-0.4,0.1-0.9,0.2-1.3c0,0.5,0,1-0.1,1.5l0,0c0,0,0,0.2-0.1,0.5c0,0,0,0,0,0v0
			c0,0,0,0,0,0c0,0,0,0,0,0c0,0,0,0,0,0c0,0,0,0.1,0,0.1c0,0,0,0,0,0c0,0,0,0,0,0l0,0c0,0,0,0,0,0c0,0,0,0,0,0c0,0,0,0,0,0
			c0,0,0,0,0,0l0,0l0,0c0,0,0,0,0,0c0,0,0,0.1,0,0.1c0,0,0,0,0,0.1c0,0,0,0.1,0,0.1c0,0,0,0,0,0c0,0,0,0,0,0c0,0,0,0,0,0
			c0,0,0,0,0,0c0,0,0,0,0,0c0,0,0,0,0,0c0,0,0,0,0,0c0,0,0,0,0,0c0,0,0,0,0,0c0,0,0,0,0,0c0,0,0,0,0,0c0,0,0,0,0,0c0,0,0,0,0,0
			c0,0,0,0,0,0c0,0,0,0,0,0c0,0,0,0,0,0c0,0.1,0,0.1-0.1,0.2c0,0,0,0,0,0c0,0,0,0,0,0c0,0,0,0,0,0c0,0,0,0,0,0c0,0,0,0,0,0
			c0,0,0,0,0,0c0,0,0,0,0,0c0,0,0,0,0,0c0,0,0,0,0,0c-0.2,0.5-0.5,1-1.1,1c-0.5,0-0.7-0.1-0.8-0.3c0,0,0,0,0,0
			c0-0.1-0.1-0.1-0.1-0.2c0,0,0,0,0,0c0,0,0,0,0,0c0-0.1,0-0.3,0-0.4c0,0,0,0,0,0l0,0c0,0,0,0,0,0v0c0,0,0,0,0,0c0,0,0,0,0,0
			c0,0,0,0,0,0c0,0,0,0,0,0c0,0,0,0,0,0c0,0,0,0,0,0c0,0,0,0,0,0c0,0,0,0,0,0c0,0,0,0,0,0c0,0,0,0,0,0c0,0,0,0,0,0c0,0,0,0,0,0
			c0,0,0,0,0,0c0,0,0,0,0,0c0,0,0,0,0,0c0,0,0,0,0,0c0,0,0-0.1,0-0.2c0,0,0,0,0,0c0-0.1-0.1-0.3-0.1-0.4c0-0.1,0-0.2,0-0.3
			c0-0.1,0-0.1,0-0.2v0c0,0,0,0,0,0c0-0.6,0-1,0-1.3c0-0.1,0-0.2,0-0.3c0,0,0,0,0,0c0,0,0,0,0,0c0,0,0,0,0,0c0,0,0,0,0,0
			c0,0,0,0,0,0c0-0.1-0.1-0.3-0.1-0.3c0,0,0,0,0,0c0,0,0,0,0,0c0,0,0-0.1-0.1-0.1c0,0,0,0,0,0c0,0,0,0,0-0.1c0,0-0.1-0.1-0.1-0.1
			c0,0,0,0,0,0c0,0,0,0,0,0c0,0,0,0,0,0c0,0,0,0,0-0.1c0,0,0,0,0,0c0,0,0,0,0,0c0,0,0,0,0,0c0,0,0,0,0,0c0,0,0,0,0,0
			c0,0,0-0.1,0-0.1c0-0.1,0-0.2,0-0.2c0,0,0,0,0,0c0,0,0,0,0,0c0,0,0,0,0,0c0,0,0,0,0,0c0,0,0,0,0,0h0c0,0,0,0,0,0c0,0,0,0,0,0
			c0,0,0,0,0,0c0,0,0,0,0,0c0,0,0,0,0,0c0,0,0,0,0,0c0,0,0,0,0,0c0,0,0,0,0,0c0,0,0,0,0,0c0,0,0,0-0.1,0c0,0,0,0,0,0c0,0,0,0,0,0
			c0,0,0,0,0,0c0,0,0,0,0,0c0,0,0,0,0,0c0,0,0,0,0,0c0,0,0,0,0,0c0,0,0,0,0,0c0,0,0,0,0,0c0,0,0,0,0,0c0,0,0,0,0,0c0,0,0,0,0,0
			c0,0,0,0,0,0c0,0,0,0,0,0c0,0,0,0-0.1,0c0,0-0.1,0-0.1,0c0,0,0,0,0,0c0,0-0.1,0-0.1,0c0,0-0.1,0-0.1,0c0,0-0.1,0-0.1,0
			c0,0-0.1,0-0.1,0c0,0-0.1,0-0.1,0c0,0-0.1,0-0.1,0c0,0-0.1,0-0.1,0c0,0-0.1,0-0.1,0c0,0-0.1,0-0.1,0c0,0-0.1,0-0.1,0
			c0,0-0.1,0-0.1,0c0,0-0.1,0-0.1,0c0,0-0.1,0-0.1,0c0,0,0,0-0.1,0C19,27.8,19,28.1,19,28.3c0,0,0,0,0,0c0,0-0.1-0.1-0.2-0.1
			c-0.2,0-0.8,0.2-0.5,0.8c-0.2,0-0.6,0-0.8,0.3c-0.2,0.3-0.1,0.7,0.6,1c0,0,0,0,0,0c0,0,0.1,0,0.1,0.1l0,0l0.1,0.4l0,0
			c0,0,0,0,0.1,0.1c0,0,0.3,0.2,0.6,0.3c0,0,0,0,0,0c0.1,0,0.1,0,0.2,0c0,0-0.1,0.1-0.2,0.2c-0.1,0.2-0.2,0.5-0.1,0.9
			c0,0.3-0.2,0.6-0.5,0.7c0.1,0,0.5-0.1,0.8,0.2c0,0,0,0.1,0,0.1c-0.1,0-0.2,0.1-0.2,0.3c0,0,0.2-0.3,0.5-0.3c0.1,0,0.1,0.1,0.1,0.1
			c0,0.1,0,0.3-0.1,0.4c0,0,0.2-0.2,0.2-0.4c0,0,0-0.1,0.1,0c0,0,0.1,0,0.1,0.1l0,0c0,0,0.1-0.1,0.1,0c0.1,0.1,0.4,0.2,0.4,0.5
			c0-0.1,0.1-0.5,0.3-0.5c0,0,0.1,0,0.1,0c0,0,0.2-0.5,0.4-0.5c0,0,0,0,0,0c0.2-0.1,0.3-0.2,0.3-0.2c0,0,0,0,0,0c0,0,0,0,0,0
			c0,0,0,0,0,0c0,0,0,0,0,0c0.1,0,0.1-0.1,0.2-0.2c0,0,0,0,0,0c0,0,0,0,0,0c0.2-0.1,0.3,0,0.4,0.1c0,0,0,0,0,0c0,0,0.1,0.1,0.1,0.1
			c0,0,0,0,0,0c0.2,0.3,0.2,0.7-0.2,1.1c-0.6,0.6-2.5,1.2-3.1,1.1c-0.1,0-0.1,0-0.2,0c0,0-0.1,0-0.1,0c-0.7-0.3-0.9-0.6-0.9-0.8
			c0,0,0,0,0-0.1c0-0.1,0-0.3,0-0.4v0c0-0.1,0-0.2,0-0.4c0,0,0,0,0,0c0.1-0.8,0-1.4,0-1.7c0,0,0,0,0,0c0,0,0,0,0,0c0,0,0,0,0-0.1
			c0,0,0,0,0,0c0,0,0,0,0,0c0,0,0,0,0,0c0-0.1,0-0.2-0.1-0.3c0,0,0,0,0-0.1c-0.1-0.4-0.2-0.8-0.4-1.2c-0.1-0.2-0.2-0.4-0.2-0.6
			c0-0.2-0.1-0.5-0.1-0.8c0,0,0,0,0,0c0,0,0-0.1,0-0.1c0-0.3,0-0.6,0.1-0.9c0.1-0.4,0.2-0.7,0.2-0.8c0-0.1,0-0.1,0-0.1
			c0.2-0.4,0.4-0.8,0.5-1.2c0,0,0.2-0.4,0.5-0.8c0.3-0.4,0.6-0.8,0.9-1.1c0.1,0,0.1-0.1,0.2-0.1c0,0-0.1,0-0.2,0l-0.1-0.4
			c-0.1-0.4,0-0.8,0.1-1.2c0.1-0.1,0.1-0.3,0.2-0.4l0.1-0.1c0,0,0-0.1,0.1-0.1l0.1-0.1l0.8-1.7h-7.9l-1.4,3l0.1,0.5l0.1,1
			c0,0,0,0,0,0c0,0,0,0,0,0l0,0.2c-0.2,0.2-0.4,0.3-0.6,0.4c-0.3,0.2-0.5,0.3-0.8,0.4L9.4,25c0.2,0,0.4-0.1,0.6-0.2
			c0.3-0.1,0.6-0.3,0.9-0.5c0.1,0,0.1-0.1,0.2-0.1c0,0,0,0,0,0c0,0.1,0,0.2,0,0.4c0,0,0,0.1,0,0.1c-0.1,0.1-0.2,0.1-0.3,0.2
			c-0.2,0.1-0.3,0.2-0.5,0.3c-0.4,0.2-0.8,0.4-1.2,0.4l-0.3,0.7c0.7-0.1,1.4-0.3,1.9-0.7c0.1,0.7,0.4,2.5,0.4,3.9
			c-1,0.4-0.9,1.3-0.9,1.3c0-0.1,0.1-0.2,0.1-0.2c0.2-0.4,0.5-0.6,0.9-0.7c0.3,0,0.7-0.1,1.2-0.1h0l0.3,0l0,0c0,0,2.4-0.1,2.4-0.1h0
			c0,0,0.1,0,0.1,0c0,0,0,0,0,0c0.2,0,0.4-0.1,0.4-0.2c0,0,0,1.1,0,1.8c0,0,0,0,0,0v0c0,0,0,0,0,0c0,0,0,0,0,0.1c0,0,0,0,0,0
			c0,0,0,0,0,0.1c0,0,0,0,0,0c0,0,0,0,0,0c0,0,0,0,0,0c0,0,0,0,0,0c0,0,0,0,0,0.1c0,0.1,0,0.1,0,0.2c-0.1,0.6-0.1,0.7,0,0.7l-0.2,0
			c0,0,0,0,0,0c0,0,0,0,0,0c0,0,0,0,0,0c0,0,0,0,0,0c0,0,0,0,0,0c0,0,0,0,0,0c0,0,0,0-0.1,0c0,0,0,0,0,0c0,0,0,0,0,0c0,0,0,0,0,0
			c0,0,0,0,0,0c0,0,0,0,0,0c0,0,0,0-0.1,0c-1.5,0.3-5.2,1-6.6,0.1c-0.6-0.4-1.1-1.4-1.4-2.5l-2.9,6.3l-0.5,1.2h18.5l8.7-18.6H21.9z
			 M19.2,28.2C19.2,28.2,19.2,28.2,19.2,28.2c0.1-0.7,1.6-0.1,1.6-0.1c0.5,0.2,0.8,0.5,1,0.8c0,0.1,0.1,0.2,0.1,0.3
			c0,0.1,0,0.1,0,0.2c0,0,0,0.1-0.1,0.1c-0.1,0.1-0.2,0.1-0.3,0.1c-0.1,0-0.3,0-0.4-0.1c-0.1,0-0.1-0.1-0.2-0.1
			c-0.3-0.1-0.6-0.3-0.9-0.5c-0.3-0.2-0.6-0.3-0.8-0.5C19.2,28.4,19.2,28.3,19.2,28.2z M18.8,28.5c0,0,0.1-0.1,0.4,0c0,0,0,0,0,0
			c0,0,0,0,0,0c0.2,0.2,0.5,0.3,0.8,0.5c0,0,0,0,0,0c0.2,0.1,0.4,0.2,0.6,0.3c0,0,0,0,0,0c0.3,0.1,0.6,0.3,0.7,0.3
			c0.1,0.1,0.5,0.4,0.6,0.8c0,0,0,0,0,0c0,0.2,0,0.3-0.2,0.5c-0.5,0.4-2.3-1.2-2.8-1.6c0,0,0,0,0,0l0,0l0,0
			C18.8,29.2,18.3,28.7,18.8,28.5z M19.2,30.9c-0.1,0-0.2-0.1-0.2-0.1v0c0,0-0.1-0.1-0.1-0.1c0,0,0,0,0,0c0,0,0,0,0,0
			c-0.1-0.1-0.1-0.2-0.2-0.2c0,0,0,0,0,0c-0.2-0.2-0.4-0.2-0.4-0.2c-0.2-0.1-0.6-0.3-0.4-0.7c0,0,0.3-0.5,0.9-0.2l0,0
			c0,0,0.1,0.1,0.1,0.1l0,0c0,0,0,0,0,0c0,0,0,0,0,0c0.1,0.1,0.2,0.2,0.4,0.4l0,0c0,0,0,0,0,0v0c0,0,0,0,0,0c0,0,0,0,0,0
			c0,0,0,0,0.1,0h0c0,0,0,0,0,0l0,0c0,0,0,0,0,0c0.3,0.2,0.7,0.5,1,0.7c0.3,0.2,0.5,0.3,0.5,0.3c1.1,0.3,0.6,1,0.6,1
			c-0.4,0.5-1.2-0.3-1.3-0.3c-0.1,0-0.2-0.1-0.4-0.1c-0.1,0-0.2-0.1-0.3-0.2c0,0,0,0,0,0c0,0-0.1-0.1-0.1-0.2l0-0.1L19.2,30.9z
			 M21.3,32.4c-0.2,0.3-0.5,0.5-0.7,0.5l-0.1,0c0,0,0,0,0,0c-0.1,0-0.2,0-0.2,0h0c0,0,0,0,0,0v0c-0.5,0-1,0-1.1-0.4c0,0,0,0,0,0
			c0,0,0,0,0,0c0,0,0-0.1,0-0.2c0,0,0,0,0,0c0,0,0,0,0,0c0,0,0,0,0-0.1c0,0,0,0,0,0c0,0,0,0,0,0c0-0.3,0-0.5,0.1-0.6c0,0,0,0,0,0
			c0.1-0.1,0.1-0.2,0.2-0.2c0.1,0,0.1-0.1,0.1-0.1c0.3-0.1,0.8,0.7,1.2,0.8C20.9,32.2,21.2,32.3,21.3,32.4
			C21.3,32.4,21.3,32.4,21.3,32.4L21.3,32.4z M22.2,30.7C22.2,30.8,22.2,30.8,22.2,30.7C22.2,30.8,22.2,30.8,22.2,30.7
			C22.2,30.8,22.2,30.7,22.2,30.7L22.2,30.7C22.2,30.7,22.2,30.7,22.2,30.7C22.2,30.7,22.2,30.7,22.2,30.7z M16.3,32.4
			c0,0.1,0,0.1,0,0.2c0,0,0,0,0,0c0,0,0,0,0,0c0,0,0,0.1,0,0.1v0c0,0,0,0.1,0,0.1c0,0,0,0,0,0l0,0c0,0.1,0,0.1,0,0.2
			c-0.1-0.1-0.1-0.2-0.1-0.3C16,32.6,16,32.4,16,32.2c0.1-0.7,0.1-1.3,0-1.8l0,0c0,0.1,0.1,0.2,0.1,0.4c0,0.1,0,0.2,0.1,0.3l0,0.2
			l0,0.1l0,0.1c0,0,0,0.1,0,0.1l0,0.1c0,0,0,0.1,0,0.1l0,0.1c0,0,0,0,0,0.1l0,0.1C16.3,32.1,16.3,32.2,16.3,32.4z M16.7,32.5
			C16.7,32.5,16.7,32.5,16.7,32.5c0,0.4,0,0.7-0.1,0.8c0,0,0,0,0,0c0,0,0,0,0,0c0,0,0,0,0,0c0,0,0,0,0,0h0l0,0c0,0,0,0,0,0v0
			c0,0-0.1-0.1-0.1-0.2c0-0.1,0-0.2,0-0.2c0-0.2,0-0.7,0-0.8v0c0,0,0,0,0,0c0,0,0,0,0,0v0c0-0.1,0-0.1,0-0.2v0c0-0.1,0-0.2,0-0.3
			c0,0,0-0.1,0-0.1l0-0.1c0-0.1,0-0.2,0-0.2c0-0.1,0-0.2-0.1-0.2l0-0.1l0-0.1c0-0.1-0.1-0.3-0.1-0.4c0-0.1-0.1-0.2-0.1-0.3
			c0,0,0-0.1,0-0.1c0,0,0,0,0,0c0.1,0.1,0.3,0.3,0.3,0.4c0,0.1,0.1,0.1,0.1,0.2c0,0,0,0,0,0c0,0.1,0,0.1,0.1,0.2c0,0,0,0,0,0
			c0,0.1,0.1,0.2,0.1,0.4C16.7,31.2,16.7,31.8,16.7,32.5z M17.4,33.4C17.4,33.4,17.4,33.4,17.4,33.4L17.4,33.4c0,0.1,0,0.2,0,0.2v0
			c0,0.2,0,0.3,0,0.5c0,0-0.1,0-0.1-0.1c0,0,0,0,0,0c0,0-0.1-0.1-0.1-0.1c0,0,0,0,0,0c0,0,0,0,0,0c0,0,0,0,0-0.1
			c0-0.1-0.1-0.1-0.1-0.2c0,0,0,0,0,0c0,0,0,0,0-0.1c0,0,0,0,0,0c0-0.1,0-0.2,0-0.3c0-0.2,0-0.3,0-0.4c0-0.1,0-0.1,0-0.2
			c0,0,0,0,0,0c0-0.6-0.1-1.2-0.1-1.5c0-0.1,0-0.1,0-0.2c0,0,0,0,0,0v0c0-0.1,0-0.1,0-0.2c0,0,0,0,0,0c0-0.1-0.1-0.3-0.2-0.4
			c-0.1-0.1-0.1-0.3-0.3-0.4c0,0,0,0,0,0c0,0,0,0,0,0c0,0,0,0,0,0c-0.4-0.6-0.3-1.2-0.2-1.4c0-0.1,0-0.1,0.1-0.2
			c0.1-0.2,0.2-0.4,0.2-0.6c0-0.1,0.1-0.2,0.1-0.3c0,0,0,0,0,0.1l0,0c0,0.1-0.1,0.3-0.1,0.7c0,0,0,0,0,0c0,0.5,0,1.1,0.3,1.6
			c0.3,0.6,0.6,1.5,0.7,2.5v0C17.4,32.6,17.4,33,17.4,33.4z"/>
		<path class="st2" d="M20.4,33.9L20.4,33.9C20.4,33.9,20.4,33.9,20.4,33.9C20.4,33.9,20.4,33.9,20.4,33.9
			C20.4,33.9,20.4,33.9,20.4,33.9C20.4,33.9,20.4,33.9,20.4,33.9C20.4,33.9,20.4,33.9,20.4,33.9C20.4,33.9,20.4,33.9,20.4,33.9
			C20.4,33.9,20.4,33.9,20.4,33.9z"/>
		<polygon class="st2" points="22.5,29.6 22.5,29.6 22.5,29.6 		"/>
		<polygon class="st2" points="22.3,32.9 22.3,32.9 22.3,32.9 22.3,32.9 22.3,32.9 22.3,32.9 22.3,32.9 		"/>
		<polygon class="st2" points="21.8,32.7 21.8,32.7 21.8,32.7 		"/>
		<polygon class="st2" points="21.8,32.7 21.8,32.7 21.8,32.7 		"/>
	</g>
</g>
</svg>
